<mxfile host="app.diagrams.net" agent="Mozilla/5.0 (Windows NT 10.0; Win64; x64; rv:136.0) Gecko/20100101 Firefox/136.0" version="26.1.0">
  <diagram id="C5RBs43oDa-KdzZeNtuy" name="Page-1">
    <mxGraphModel dx="744" dy="842" grid="1" gridSize="10" guides="1" tooltips="1" connect="1" arrows="1" fold="1" page="1" pageScale="1" pageWidth="827" pageHeight="1169" math="0" shadow="0">
      <root>
        <mxCell id="WIyWlLk6GJQsqaUBKTNV-0" />
        <mxCell id="WIyWlLk6GJQsqaUBKTNV-1" parent="WIyWlLk6GJQsqaUBKTNV-0" />
        <mxCell id="GibD8F61vMO2ZvgluRKR-3" value="" style="edgeStyle=none;curved=1;rounded=0;orthogonalLoop=1;jettySize=auto;html=1;fontSize=12;startSize=8;endSize=8;" edge="1" parent="WIyWlLk6GJQsqaUBKTNV-1" source="GibD8F61vMO2ZvgluRKR-0" target="GibD8F61vMO2ZvgluRKR-2">
          <mxGeometry relative="1" as="geometry" />
        </mxCell>
        <mxCell id="GibD8F61vMO2ZvgluRKR-0" value="Start" style="strokeWidth=2;html=1;shape=mxgraph.flowchart.start_2;whiteSpace=wrap;" vertex="1" parent="WIyWlLk6GJQsqaUBKTNV-1">
          <mxGeometry x="30" y="30" width="60" height="60" as="geometry" />
        </mxCell>
        <mxCell id="GibD8F61vMO2ZvgluRKR-1" value="End" style="strokeWidth=2;html=1;shape=mxgraph.flowchart.terminator;whiteSpace=wrap;" vertex="1" parent="WIyWlLk6GJQsqaUBKTNV-1">
          <mxGeometry x="350" y="360" width="100" height="60" as="geometry" />
        </mxCell>
        <mxCell id="GibD8F61vMO2ZvgluRKR-5" value="" style="edgeStyle=none;curved=1;rounded=0;orthogonalLoop=1;jettySize=auto;html=1;fontSize=12;startSize=8;endSize=8;" edge="1" parent="WIyWlLk6GJQsqaUBKTNV-1" source="GibD8F61vMO2ZvgluRKR-2" target="GibD8F61vMO2ZvgluRKR-4">
          <mxGeometry relative="1" as="geometry" />
        </mxCell>
        <mxCell id="GibD8F61vMO2ZvgluRKR-2" value="Ask to list foods" style="strokeWidth=2;html=1;shape=mxgraph.flowchart.display;whiteSpace=wrap;" vertex="1" parent="WIyWlLk6GJQsqaUBKTNV-1">
          <mxGeometry x="150" y="30" width="100" height="60" as="geometry" />
        </mxCell>
        <mxCell id="GibD8F61vMO2ZvgluRKR-7" value="" style="edgeStyle=none;curved=1;rounded=0;orthogonalLoop=1;jettySize=auto;html=1;fontSize=12;startSize=8;endSize=8;" edge="1" parent="WIyWlLk6GJQsqaUBKTNV-1" source="GibD8F61vMO2ZvgluRKR-4" target="GibD8F61vMO2ZvgluRKR-6">
          <mxGeometry relative="1" as="geometry" />
        </mxCell>
        <mxCell id="GibD8F61vMO2ZvgluRKR-4" value="Take 5 inputs" style="shape=parallelogram;html=1;strokeWidth=2;perimeter=parallelogramPerimeter;whiteSpace=wrap;rounded=1;arcSize=12;size=0.23;" vertex="1" parent="WIyWlLk6GJQsqaUBKTNV-1">
          <mxGeometry x="340" y="30" width="100" height="60" as="geometry" />
        </mxCell>
        <mxCell id="GibD8F61vMO2ZvgluRKR-9" value="" style="edgeStyle=none;curved=1;rounded=0;orthogonalLoop=1;jettySize=auto;html=1;fontSize=12;startSize=8;endSize=8;" edge="1" parent="WIyWlLk6GJQsqaUBKTNV-1" source="GibD8F61vMO2ZvgluRKR-6" target="GibD8F61vMO2ZvgluRKR-8">
          <mxGeometry relative="1" as="geometry" />
        </mxCell>
        <mxCell id="GibD8F61vMO2ZvgluRKR-6" value="Group the 5 inputs as one" style="rounded=1;whiteSpace=wrap;html=1;absoluteArcSize=1;arcSize=14;strokeWidth=2;" vertex="1" parent="WIyWlLk6GJQsqaUBKTNV-1">
          <mxGeometry x="340" y="190" width="100" height="100" as="geometry" />
        </mxCell>
        <mxCell id="GibD8F61vMO2ZvgluRKR-11" value="" style="edgeStyle=none;curved=1;rounded=0;orthogonalLoop=1;jettySize=auto;html=1;fontSize=12;startSize=8;endSize=8;" edge="1" parent="WIyWlLk6GJQsqaUBKTNV-1" source="GibD8F61vMO2ZvgluRKR-8" target="GibD8F61vMO2ZvgluRKR-10">
          <mxGeometry relative="1" as="geometry" />
        </mxCell>
        <mxCell id="GibD8F61vMO2ZvgluRKR-8" value="Count the 5 inputs" style="rounded=1;whiteSpace=wrap;html=1;absoluteArcSize=1;arcSize=14;strokeWidth=2;" vertex="1" parent="WIyWlLk6GJQsqaUBKTNV-1">
          <mxGeometry x="150" y="190" width="100" height="100" as="geometry" />
        </mxCell>
        <mxCell id="GibD8F61vMO2ZvgluRKR-12" value="" style="edgeStyle=none;curved=1;rounded=0;orthogonalLoop=1;jettySize=auto;html=1;fontSize=12;startSize=8;endSize=8;" edge="1" parent="WIyWlLk6GJQsqaUBKTNV-1" source="GibD8F61vMO2ZvgluRKR-10" target="GibD8F61vMO2ZvgluRKR-1">
          <mxGeometry relative="1" as="geometry" />
        </mxCell>
        <mxCell id="GibD8F61vMO2ZvgluRKR-10" value="Display result" style="strokeWidth=2;html=1;shape=mxgraph.flowchart.display;whiteSpace=wrap;" vertex="1" parent="WIyWlLk6GJQsqaUBKTNV-1">
          <mxGeometry x="150" y="360" width="100" height="60" as="geometry" />
        </mxCell>
      </root>
    </mxGraphModel>
  </diagram>
</mxfile>
